<svg version="1.1" id="Layer_1" xmlns="http://www.w3.org/2000/svg" xmlns:xlink="http://www.w3.org/1999/xlink" x="0px" y="0px"
	 width="100%" viewBox="0 0 1024 1024" enable-background="new 0 0 1024 1024" xml:space="preserve">
<path fill="#000000" opacity="1.000000" stroke="none" 
	d="
M633.052002,838.158691 
	C574.650635,862.318237 517.940735,860.867676 462.646393,829.667786 
	C448.677795,821.785950 435.441589,812.870300 422.491455,803.467712 
	C420.939728,802.341064 419.564301,800.684937 416.985596,800.828918 
	C417.184448,806.358215 419.146210,811.507141 419.600433,816.962158 
	C421.872559,844.249207 401.484314,870.021484 374.540222,876.232239 
	C348.642456,882.201843 325.913666,875.274231 306.168152,858.484436 
	C281.080627,837.152344 268.303711,809.201660 264.615662,776.820801 
	C262.023743,754.063843 264.345367,731.978821 273.977631,710.950562 
	C274.860443,709.023315 274.987823,707.103271 274.274963,705.130737 
	C264.163147,677.149536 270.224701,651.611694 286.768433,628.133423 
	C300.903076,608.074158 320.205872,595.339966 344.701782,591.544861 
	C369.314392,587.731750 391.606384,594.572998 412.011200,608.022339 
	C431.823914,621.081421 447.470367,638.698547 463.265808,656.109924 
	C477.922211,672.265747 491.966034,689.080017 510.630432,701.010315 
	C524.941040,710.157593 540.468323,715.458923 557.532837,713.308289 
	C594.228149,708.683533 599.101990,672.929688 583.762085,650.325867 
	C577.135193,640.561035 568.040222,633.669373 558.168152,627.635071 
	C535.863953,614.001465 511.314362,605.287964 487.298279,595.411255 
	C450.344452,580.213684 412.673920,566.667847 377.317627,547.787231 
	C338.788605,527.212341 308.927673,498.379059 291.628052,457.618347 
	C280.869659,432.269836 277.144104,405.930115 279.473267,378.484802 
	C282.515015,342.642609 293.834869,309.703491 314.768402,280.638092 
	C348.838776,233.332794 394.685974,203.651779 452.211792,192.694031 
	C496.902100,184.181244 538.514709,193.680099 578.027161,214.784607 
	C586.670349,219.401138 595.152039,224.319962 603.839294,229.172836 
	C604.345947,227.078552 603.219788,225.467194 602.743347,223.805252 
	C593.760864,192.471024 616.259521,156.507584 653.672546,151.668198 
	C686.469299,147.425888 712.116943,160.740524 732.486389,185.515045 
	C751.537537,208.686310 758.734253,235.641388 756.221436,265.259186 
	C755.050171,279.064117 750.455750,291.894196 743.083801,303.651825 
	C741.456177,306.247833 740.811462,308.445618 742.374634,311.474457 
	C758.096313,341.935883 753.199768,370.544647 733.484619,397.163513 
	C720.023621,415.338165 702.236511,428.097382 680.198242,433.997223 
	C650.948364,441.827728 624.092773,436.118530 599.807007,418.237366 
	C581.505127,404.762085 567.472839,387.087585 552.862610,369.992157 
	C541.508118,356.706268 530.829041,342.697998 515.185913,333.890961 
	C503.976746,327.580292 491.992950,324.014008 479.205200,326.764038 
	C456.421600,331.663574 446.656586,358.747955 459.741058,379.475891 
	C464.594482,387.164490 471.457458,392.644135 478.976135,397.352692 
	C497.284760,408.818512 517.409912,416.477844 537.189941,424.867767 
	C584.134094,444.779755 631.072205,464.776855 674.758667,491.363007 
	C709.524353,512.520325 737.554810,540.163391 754.124084,578.075317 
	C762.261353,596.694275 766.589478,616.143799 767.516357,636.552063 
	C769.539917,681.104187 757.685181,721.603821 732.362610,757.986511 
	C707.204651,794.132690 673.943542,820.677185 633.052002,838.158691 
M370.796600,252.316574 
	C366.282135,256.258545 361.638763,260.063293 357.273407,264.164001 
	C319.348206,299.789978 299.866241,343.417236 300.099060,395.688019 
	C300.239777,427.282806 310.204468,455.432159 328.760803,480.806030 
	C345.203491,503.289673 367.142517,519.069763 391.370880,531.829590 
	C429.774811,552.054993 470.749176,566.412292 510.692169,583.113586 
	C531.908569,591.984802 553.410278,600.199036 572.779846,612.868347 
	C593.777466,626.602600 609.573975,643.836243 612.528198,670.265503 
	C615.266846,694.766296 602.210266,718.334473 579.686035,728.280029 
	C561.464966,736.325623 543.045044,735.563477 524.614014,729.288696 
	C505.548615,722.797974 490.058380,710.828247 476.057983,696.737732 
	C462.540863,683.133667 450.810516,667.917053 437.670044,653.973145 
	C425.308716,640.856140 412.577057,628.164551 396.759064,619.069031 
	C377.522369,608.007751 357.479553,604.136414 335.899994,611.420166 
	C307.436188,621.027466 285.878693,650.887817 286.339600,680.466125 
	C286.398163,684.226929 286.631348,687.999329 289.602783,691.387329 
	C295.850098,686.264587 302.182007,681.735779 309.279205,678.345154 
	C321.452728,672.529236 327.162445,670.750183 330.928833,671.970154 
	C330.196625,673.896729 328.300842,674.405212 326.799561,675.338257 
	C295.098663,695.040894 280.513641,724.274292 280.564056,760.854675 
	C280.598785,786.047791 287.207764,809.632996 302.861694,829.987976 
	C316.856995,848.186157 333.895844,860.994385 358.236267,860.819519 
	C386.986542,860.612976 405.189270,840.755127 402.724762,812.039978 
	C401.689880,799.982178 392.219513,788.812317 380.502594,785.829895 
	C366.951019,782.380554 353.682434,793.468323 355.303040,806.889526 
	C355.909546,811.912231 358.625153,815.190247 363.550049,816.373962 
	C368.760345,817.626221 373.288605,814.154236 373.172882,809.122253 
	C371.603943,808.836853 370.769043,809.942017 369.813049,810.853882 
	C366.864685,813.666321 363.737671,813.524170 360.929352,810.866516 
	C358.014374,808.107849 359.195343,805.111816 361.150391,802.327576 
	C362.217041,800.808533 363.625061,799.651917 365.262085,798.751648 
	C370.644806,795.791199 376.707916,795.954285 381.156036,799.928650 
	C386.249695,804.479919 389.248566,810.225098 387.437347,817.290161 
	C383.482605,832.716675 366.039154,841.104736 350.319153,835.314026 
	C328.891113,827.420532 317.195526,804.181091 322.254089,781.317200 
	C326.641113,761.488647 347.510345,741.968201 374.502350,750.514832 
	C388.326263,754.891968 400.365479,762.692383 412.318298,770.599609 
	C432.318054,783.830383 450.882233,799.147095 471.815674,811.041626 
	C504.280792,829.488647 538.901672,837.730530 576.030701,832.437012 
	C613.128296,827.147888 646.413452,812.371399 675.325256,788.510620 
	C725.938965,746.739258 751.968140,693.997925 745.670593,627.307617 
	C743.613831,605.526367 736.354919,585.432373 724.791321,566.961670 
	C707.153259,538.788086 681.872864,518.965637 653.390381,502.839813 
	C610.099670,478.330109 564.521118,458.637360 518.824097,439.197876 
	C498.132416,430.395660 477.142365,422.060760 459.136292,408.164490 
	C444.758270,397.068176 435.145569,383.143585 433.384247,364.318573 
	C431.340393,342.473572 442.710724,320.576508 462.487000,311.176636 
	C483.148956,301.355804 503.035065,304.661530 521.983582,316.196686 
	C539.233215,326.697632 551.946838,341.935791 564.448242,357.390869 
	C576.704529,372.542908 588.760986,387.883118 603.976074,400.337830 
	C618.698425,412.389252 635.098328,420.610962 654.427612,420.598969 
	C680.555420,420.582764 701.736938,409.377136 718.286804,389.532684 
	C732.086182,372.986298 737.408936,353.981171 732.628601,332.650238 
	C731.857361,329.208771 731.445129,325.429840 728.223572,322.408478 
	C720.530212,328.810089 711.938354,333.497498 702.653137,336.770813 
	C693.662964,339.940125 684.545105,342.778046 674.515137,342.773590 
	C675.105408,340.198975 676.439026,339.703705 677.580688,339.093628 
	C686.715515,334.212250 695.221436,328.389709 703.524780,322.215027 
	C729.007935,303.265015 741.799316,278.400452 738.790527,246.324203 
	C736.456177,221.437759 726.984192,199.876602 707.145264,183.942184 
	C689.178467,169.511398 669.064392,163.676926 646.432495,171.471848 
	C624.750061,178.939758 612.862915,202.957565 620.296326,223.853973 
	C625.778259,239.264603 643.024170,246.955246 656.135620,239.836227 
	C664.821411,235.120148 668.473755,223.408752 663.627930,215.811523 
	C661.072205,211.804749 656.646057,210.066711 651.860229,211.369904 
	C648.267944,212.348099 646.161743,214.874283 645.866455,218.529083 
	C645.673401,220.917801 645.717346,223.658966 649.261047,223.555283 
	C650.434204,222.249741 649.715698,221.076019 649.750732,219.959732 
	C649.872742,216.074310 652.113647,214.209991 655.947388,214.782120 
	C660.794678,215.505493 662.809753,220.408218 659.986145,224.608810 
	C656.191650,230.253876 648.738159,232.653030 642.873901,230.117004 
	C634.906738,226.671570 630.458984,218.452286 632.105103,210.216644 
	C635.357910,193.942627 656.115479,185.051361 672.223145,193.116516 
	C688.160583,201.096451 694.893066,214.356247 694.256348,231.838501 
	C693.557190,251.034744 679.953857,268.460327 661.664429,272.569702 
	C650.540222,275.069092 639.816223,272.571747 629.612671,267.841888 
	C620.676025,263.699249 612.370728,258.408020 603.929810,253.376892 
	C584.602539,241.857101 565.256287,230.382996 544.179626,222.224258 
	C512.367493,209.909805 479.847839,207.675858 446.566071,215.111542 
	C418.535004,221.374146 393.860840,234.375275 370.796600,252.316574 
z"/>
<path fill="#000000" opacity="1.000000" stroke="none" 
	d="
M700.276001,806.119751 
	C708.132263,796.641663 717.440857,789.021790 725.068237,779.753906 
	C736.332092,766.067261 745.517822,751.096741 753.677673,735.462646 
	C756.823730,729.434814 760.349915,723.556519 762.409729,716.983276 
	C762.996338,715.111267 764.337646,713.564209 766.012634,712.302246 
	C767.324219,731.666260 723.532532,794.137756 697.116211,810.390381 
	C697.459717,808.282898 699.043579,807.519470 700.276001,806.119751 
z"/>
<path fill="#000000" opacity="1.000000" stroke="none" 
	d="
M345.420898,887.736572 
	C340.242462,885.836426 334.806335,886.250732 330.356812,882.516785 
	C349.710907,886.342407 368.899963,886.748779 387.915588,880.955322 
	C374.555359,887.674805 360.634796,890.500793 345.420898,887.736572 
z"/>
<path fill="#000000" opacity="1.000000" stroke="none" 
	d="
M717.725281,161.280640 
	C715.238464,159.420502 712.684998,158.104568 711.605652,155.145523 
	C719.224487,154.925568 740.122925,175.209503 745.861572,188.839798 
	C737.746399,178.501556 728.637451,169.203522 717.725281,161.280640 
z"/>
<path fill="#000000" opacity="1.000000" stroke="none" 
	d="
M657.767090,834.748352 
	C660.579529,833.510681 662.719788,831.472046 665.879272,831.454285 
	C663.317810,836.580994 644.773254,846.025574 638.135925,845.070251 
	C645.128540,841.405090 651.292236,838.174500 657.767090,834.748352 
z"/>
<path fill="#000000" opacity="1.000000" stroke="none" 
	d="
M750.790161,199.370178 
	C750.202454,197.642212 749.758972,196.247513 749.175903,194.413986 
	C754.893738,199.865753 760.271973,211.865585 759.580078,218.332382 
	C755.005493,212.350052 753.584045,205.722504 750.790161,199.370178 
z"/>
<path fill="#000000" opacity="1.000000" stroke="none" 
	d="
M686.731445,143.343353 
	C692.703186,144.570862 698.137817,146.322189 702.492188,150.501923 
	C696.854797,149.328964 691.179688,148.466797 686.205505,145.455795 
	C685.429810,144.986221 685.560303,144.028427 686.731445,143.343353 
z"/>
<path fill="#000000" opacity="1.000000" stroke="none" 
	d="
M396.055542,874.711060 
	C402.723114,870.889648 408.433655,866.347656 413.920807,861.473999 
	C408.346619,867.852417 403.686371,875.282959 394.966797,878.162170 
	C393.667297,876.203979 395.111328,875.704773 396.055542,874.711060 
z"/>
<path fill="#000000" opacity="1.000000" stroke="none" 
	d="
M756.911133,373.852600 
	C755.613220,377.573669 755.033813,381.227142 751.302124,384.981384 
	C752.798279,376.454315 755.849548,369.976349 758.288208,361.860382 
	C760.273682,367.062805 757.239441,370.066254 756.911133,373.852600 
z"/>
<path fill="#000000" opacity="1.000000" stroke="none" 
	d="
M675.212891,824.142700 
	C676.711609,823.707520 677.911133,822.706726 679.378479,824.327332 
	C677.963074,827.318359 675.099365,827.694702 671.995178,828.643738 
	C671.791321,825.924805 673.467468,825.185913 675.212891,824.142700 
z"/>
</svg>